# xmcd
#
# Track frame offsets:
# 150
# 13330
# 25635
# 36767
# 50502
# 64465
# 78332
# 91425
# 102520
# 111792
# 126105
# 139807
# 150535
# 162785
# 173467
# 185200
#
# Disc length: 2636 seconds
#
#
# Revision: 0
# Processed by: cddbd v1.5.1PL2 Copyright (c) Steve Scherf et al.
# Submitted via: FreeRIP 2.60 
#
DISCID=d30a4a10
DTITLE=Lefty Frizzell - 16 Biggest Hits
DYEAR=2006
DGENRE=Honky Tonk
TTITLE0=If You've Got The Money I've Got The Time
TTITLE1=I Love You A Thousand Ways
TTITLE2=Look What Thoughts Will Do
TTITLE3=I Want To Be With You Always
TTITLE4=Always Late (With Your Kisses)
TTITLE5=Mom And Dad's Waltz
TTITLE6=Travellin' Blues
TTITLE7=I'm An Old, Old Man (Tryin' To Live While I Can)
TTITLE8=Just Can't Live That Fast (Any More)
TTITLE9=The Long Black Veil
TTITLE10=Saginaw, Michigan
TTITLE11=She's Gone, Gone, Gone
TTITLE12=I'm Not The Man I'm Supposed To Be
TTITLE13=How Far Down Can I Go
TTITLE14=I Never Go Around Mirrors
TTITLE15=That's The Way Love Goes
EXTD=
EXTT0=
EXTT1=
EXTT2=
EXTT3=
EXTT4=
EXTT5=
EXTT6=
EXTT7=
EXTT8=
EXTT9=
EXTT10=
EXTT11=
EXTT12=
EXTT13=
EXTT14=
EXTT15=
PLAYORDER=
